<svg xmlns="http://www.w3.org/2000/svg" viewBox="-79.92 -1062.92 1165.84 1165.84">
  <g transform="scale(1,-1)" fill="#004ac6"><path d="M280.0 385.0Q241 385 213.0 413.0Q185 441 185.0 480.0Q185 519 213.0 547.0Q241 575 280.0 575.0Q319 575 347.0 547.0Q375 519 375.0 480.0Q375 441 347.0 413.0Q319 385 280.0 385.0ZM280 209Q168 209 88.5 288.5Q9 368 9.0 480.0Q9 592 88.5 671.5Q168 751 280 751Q358 751 420.0 712.0Q482 673 514 615H861L997 480L796 279L715 341L636 282L546 345H514Q483 288 420.5 248.5Q358 209 280 209ZM280 320Q340 320 383.5 357.0Q427 394 438 455H580L633 418L715 479L785 426L844 476L816 505H437Q429 563 384.0 601.5Q339 640 280 640Q214 640 167.0 593.0Q120 546 120 480Q120 414 167.0 367.0Q214 320 280 320Z"/></g>
</svg>
